<?xml version="1.0" standalone="no"?>
<!DOCTYPE svg PUBLIC "-//W3C//DTD SVG 20010904//EN"
 "http://www.w3.org/TR/2001/REC-SVG-20010904/DTD/svg10.dtd">
<svg version="1.0" xmlns="http://www.w3.org/2000/svg"
 width="278.000000pt" height="248.000000pt" viewBox="0 0 278.000000 248.000000"
 preserveAspectRatio="xMidYMid meet">

<g transform="translate(0.000000,248.000000) scale(0.100000,-0.100000)"
fill="#000000" stroke="none">
<path d="M1508 1895 c-59 -33 -74 -109 -34 -168 l24 -35 -47 -129 -46 -128
-75 -5 c-41 -3 -80 -9 -87 -13 -8 -5 -26 14 -52 52 -23 33 -41 64 -41 70 0 5
10 26 21 46 28 47 23 127 -11 173 -86 116 -282 63 -297 -79 -10 -98 79 -185
180 -176 l48 4 40 -58 c21 -32 39 -64 39 -72 0 -7 -11 -24 -24 -36 -13 -12
-31 -40 -41 -61 -17 -38 -20 -39 -54 -35 -81 12 -273 35 -286 35 -8 0 -21 13
-29 29 -18 34 -65 56 -102 47 -36 -9 -74 -50 -74 -81 0 -88 106 -135 159 -71
17 20 56 20 226 -2 l130 -17 12 -48 c6 -27 21 -64 33 -84 l21 -36 -33 -36
c-18 -19 -73 -77 -122 -127 l-88 -92 -34 14 c-18 8 -56 14 -84 14 -113 0 -190
-79 -190 -193 0 -203 285 -259 371 -72 24 52 23 99 -1 154 l-20 44 122 124
123 123 60 -24 60 -25 3 -65 c3 -62 2 -66 -33 -100 -41 -42 -47 -88 -15 -129
42 -53 134 -41 159 22 16 36 7 67 -28 104 -23 26 -26 34 -23 95 2 37 7 70 10
74 4 4 25 10 47 13 l41 7 123 -185 123 -185 -16 -30 c-22 -42 -20 -73 7 -113
47 -70 147 -70 194 0 28 42 29 76 3 119 -23 37 -81 66 -115 58 -20 -5 -36 15
-144 178 -66 100 -121 187 -121 192 0 6 12 24 28 42 l27 32 99 -43 c54 -23
102 -49 106 -57 4 -8 13 -27 20 -41 24 -53 91 -64 139 -23 25 21 31 33 31 65
0 73 -71 111 -144 78 -21 -10 -39 -6 -126 31 l-101 43 3 75 3 76 134 54 134
53 26 -25 c55 -53 132 -69 198 -41 118 49 150 188 65 278 -39 42 -75 57 -132
57 -103 0 -180 -76 -180 -178 l0 -37 -134 -54 -134 -54 -60 54 -60 54 44 123
c24 68 46 127 49 131 2 5 20 12 39 15 82 15 115 123 58 187 -34 38 -100 49
-144 24z m96 -61 c23 -22 20 -71 -3 -84 -41 -22 -91 2 -91 43 0 48 61 74 94
41z m-540 -78 c109 -45 75 -196 -44 -196 -35 0 -85 41 -94 76 -14 54 23 112
79 127 11 2 21 5 23 6 1 0 18 -5 36 -13z m1010 -190 c96 -40 103 -167 10 -211
-106 -50 -216 65 -154 163 19 30 67 61 98 62 7 0 27 -6 46 -14z m-676 -198
c99 -25 168 -140 142 -237 -21 -79 -114 -151 -195 -151 -125 0 -224 126 -194
246 20 79 102 146 187 153 7 1 34 -4 60 -11z m-714 -91 c9 -15 7 -21 -9 -33
-22 -16 -34 -14 -49 8 -7 12 -6 21 4 33 16 19 39 16 54 -8z m1216 -302 c19
-23 8 -50 -20 -50 -16 0 -26 6 -28 18 -4 18 14 47 28 47 4 0 13 -7 20 -15z
m-1048 -262 c58 -29 82 -105 52 -168 -26 -55 -67 -77 -133 -72 -47 3 -59 9
-88 40 -28 31 -33 44 -33 85 0 111 99 167 202 115z m507 -12 c13 -24 -9 -57
-33 -48 -23 9 -31 34 -16 52 17 20 37 19 49 -4z m481 -171 c11 -11 20 -29 20
-39 0 -19 -43 -61 -62 -61 -15 0 -58 48 -58 65 0 21 36 55 60 55 11 0 29 -9
40 -20z"/>
</g>
</svg>
